<svg width="25" height="26" viewBox="0 0 25 26" fill="none" xmlns="http://www.w3.org/2000/svg">
<path d="M20.8381 0.966217H12.0178C12.0178 3.16505 13.7978 4.94473 15.9957 4.94473H17.6185V6.51504C17.6185 8.71387 19.3984 10.4938 21.5973 10.4938V1.7252C21.597 1.52394 21.517 1.33098 21.3747 1.18868C21.2323 1.04638 21.0393 0.966372 20.8381 0.966217Z" fill="#2684FF"/>
<path d="M16.4674 5.36368H7.64706C7.64706 7.56251 9.42617 9.3418 11.625 9.3418H13.2477V10.9125C13.2477 13.1113 15.0275 14.8914 17.2264 14.8914V6.12286C17.2262 5.92159 17.1462 5.72861 17.0039 5.58628C16.8616 5.44394 16.6686 5.36388 16.4674 5.36368Z" fill="url(#paint0_linear_0_522)"/>
<path d="M12.0965 9.76054H3.27539C3.27539 11.9594 5.05527 13.7393 7.25391 13.7393H8.87695V15.3102C8.87695 17.5082 10.6566 19.2881 12.8555 19.2881V10.5197C12.8553 10.3185 12.7753 10.1255 12.633 9.98314C12.4907 9.84081 12.2977 9.76075 12.0965 9.76054Z" fill="url(#paint1_linear_0_522)"/>
<path d="M8.98436 20.2738H9.65507V23.5902C9.65507 24.4654 9.25604 25.0758 8.32968 25.0758C7.98202 25.0758 7.70956 25.0178 7.52264 24.9521V24.3166C7.72714 24.399 7.97343 24.4402 8.21991 24.4402C8.78905 24.4402 8.98436 24.1107 8.98436 23.6316V20.2738ZM10.8871 20.0176C11.1504 20.0176 11.3373 20.1746 11.3373 20.4547C11.3373 20.727 11.1504 20.8926 10.8871 20.8926C10.624 20.8926 10.4371 20.7354 10.4371 20.4547C10.4371 20.1832 10.624 20.0176 10.8871 20.0176ZM10.556 21.4121H11.2016V25.043H10.556V21.4121ZM12.7982 25.043H12.1699V21.4121H12.7984V22.0477C13.0197 21.6182 13.3935 21.3131 14.1236 21.3543V21.9652C13.2998 21.8828 12.7984 22.1217 12.7984 22.8977L12.7982 25.043ZM17.1402 24.3906C16.9021 24.8697 16.4519 25.1172 15.8736 25.1172C14.8805 25.1172 14.3791 24.2998 14.3791 23.2271C14.3791 22.2041 14.9055 21.3381 15.9508 21.3381C16.4939 21.3381 16.9189 21.577 17.1402 22.0477V21.4121H17.7857V25.043H17.1402V24.3906ZM16.0439 24.5395C16.6215 24.5395 17.131 24.1848 17.131 23.376V23.0875C17.131 22.2789 16.6642 21.924 16.1117 21.924C15.39 21.924 15.016 22.3857 15.016 23.2271C15.0246 24.1021 15.3816 24.5395 16.0439 24.5395Z" fill="#253858"/>
<defs>
<linearGradient id="paint0_linear_0_522" x1="17.043" y1="5.37357" x2="13.29" y2="9.24332" gradientUnits="userSpaceOnUse">
<stop offset="0.176" stop-color="#0052CC"/>
<stop offset="1" stop-color="#2684FF"/>
</linearGradient>
<linearGradient id="paint1_linear_0_522" x1="12.9259" y1="9.7945" x2="8.58662" y2="14.0162" gradientUnits="userSpaceOnUse">
<stop offset="0.176" stop-color="#0052CC"/>
<stop offset="1" stop-color="#2684FF"/>
</linearGradient>
</defs>
</svg>
