<svg width="25" height="26" viewBox="0 0 25 26" fill="none" xmlns="http://www.w3.org/2000/svg">
<path d="M5.32324 16.2654C5.32324 17.6971 4.15566 18.8664 2.72383 18.8664C1.29219 18.8664 0.123047 17.6971 0.123047 16.2654C0.123047 14.8338 1.29238 13.6645 2.72402 13.6645H5.32344L5.32324 16.2654ZM6.63359 16.2654C6.63359 14.8338 7.80293 13.6645 9.23457 13.6645C10.6662 13.6645 11.8355 14.8336 11.8355 16.2654V22.7762C11.8355 24.2078 10.6664 25.3771 9.23457 25.3771C7.80293 25.3771 6.63359 24.2078 6.63359 22.7762V16.2654Z" fill="#95BF47"/>
<path d="M9.23457 5.82324C7.80293 5.82324 6.63359 4.65566 6.63359 3.22383C6.63359 1.79219 7.80293 0.623047 9.23457 0.623047C10.6662 0.623047 11.8355 1.79238 11.8355 3.22402V5.82344L9.23457 5.82324ZM9.23457 7.13359C10.6662 7.13359 11.8355 8.30293 11.8355 9.73457C11.8355 11.1662 10.6664 12.3355 9.23457 12.3355H2.72383C1.29219 12.3355 0.123047 11.1664 0.123047 9.73457C0.123047 8.30293 1.29238 7.13359 2.72402 7.13359H9.23457Z" fill="#5E8E3E"/>
<path d="M19.6768 9.73457C19.6768 8.30293 20.8443 7.13359 22.2762 7.13359C23.7078 7.13359 24.8772 8.30293 24.8772 9.73457C24.8772 11.1662 23.7078 12.3355 22.2762 12.3355H19.6768V9.73457ZM18.3664 9.73457C18.3664 11.1662 17.1971 12.3355 15.7654 12.3355C14.3338 12.3355 13.1645 11.1664 13.1645 9.73457V3.22383C13.1645 1.79219 14.3336 0.623047 15.7654 0.623047C17.1971 0.623047 18.3664 1.79238 18.3664 3.22402V9.73457Z" fill="#2EB57D"/>
<path d="M15.7654 20.1768C17.1971 20.1768 18.3664 21.3443 18.3664 22.7762C18.3664 24.2078 17.1971 25.3771 15.7654 25.3771C14.3338 25.3771 13.1645 24.2078 13.1645 22.7762V20.1768H15.7654ZM15.7654 18.8664C14.3338 18.8664 13.1645 17.6971 13.1645 16.2654C13.1645 14.8338 14.3336 13.6645 15.7654 13.6645H22.2762C23.7078 13.6645 24.8772 14.8336 24.8772 16.2654C24.8772 17.6971 23.7078 18.8664 22.2762 18.8664H15.7654Z" fill="#EBB02E"/>
</svg>
