<svg width="23" height="25" viewBox="0 0 23 25" fill="none" xmlns="http://www.w3.org/2000/svg">
<path d="M19.7682 4.81392C19.7509 4.68769 19.6409 4.61763 19.5496 4.61C19.459 4.60238 17.6843 4.57533 17.6843 4.57533C17.6843 4.57533 16.2002 3.1299 16.0535 2.98286C15.9069 2.83582 15.6206 2.88021 15.5092 2.9135C15.5079 2.91419 15.2305 3.0002 14.7637 3.14515C14.6855 2.8913 14.5707 2.57919 14.4068 2.26569C13.8784 1.25444 13.1045 0.719689 12.1695 0.718302C12.1681 0.718302 12.1674 0.718302 12.166 0.718302C12.101 0.718302 12.0367 0.724545 11.9717 0.730093C11.944 0.696801 11.9163 0.664203 11.8873 0.632298C11.4799 0.19534 10.9578 -0.0175909 10.3319 0.00113589C9.12433 0.0358151 7.92163 0.910425 6.94646 2.46405C6.26039 3.55714 5.73823 4.93044 5.59022 5.99371C4.20355 6.42442 3.23392 6.72544 3.21248 6.73237C2.51258 6.95293 2.49044 6.97443 2.39915 7.63611C2.33137 8.13619 0.5 22.338 0.5 22.338L15.8474 25L22.4993 23.3416C22.4993 23.3416 19.7854 4.94015 19.7682 4.81392ZM13.9953 3.38375C13.6419 3.49333 13.2401 3.61818 12.8044 3.75343C12.7954 3.1403 12.7228 2.28719 12.4378 1.54991C13.3542 1.724 13.8051 2.76368 13.9953 3.38375ZM12.0014 4.00312C11.1971 4.25281 10.3194 4.52539 9.43901 4.79866C9.68661 3.84776 10.1562 2.90101 10.733 2.28025C10.9474 2.04929 11.2476 1.79197 11.6031 1.64493C11.9371 2.34406 12.0097 3.33381 12.0014 4.00312ZM10.3561 0.807081C10.6396 0.800839 10.8782 0.863261 11.0823 0.997817C10.7558 1.16774 10.4405 1.41189 10.1445 1.73024C9.37746 2.55561 8.7896 3.83666 8.55514 5.07263C7.82411 5.29943 7.10899 5.52207 6.45058 5.72598C6.86624 3.78048 8.4922 0.861181 10.3561 0.807081Z" fill="#95BF47"/>
<path d="M19.5503 4.6107C19.4597 4.60308 17.6851 4.57603 17.6851 4.57603C17.6851 4.57603 16.2009 3.1306 16.0542 2.98356C15.9996 2.92876 15.9256 2.90033 15.8481 2.88853L15.8488 24.9993L22.5 23.3416C22.5 23.3416 19.7862 4.94085 19.7689 4.81462C19.7516 4.68839 19.6409 4.61833 19.5503 4.6107Z" fill="#5E8E3E"/>
<path d="M12.1611 8.04049L11.3886 10.939C11.3886 10.939 10.5269 10.5457 9.50538 10.6102C8.00736 10.7052 7.99145 11.6527 8.00666 11.8906C8.08827 13.1869 11.4889 13.4699 11.6798 16.5064C11.8299 18.8951 10.4162 20.5292 8.37944 20.6582C5.93461 20.8128 4.58875 19.3667 4.58875 19.3667L5.10676 17.157C5.10676 17.157 6.46162 18.1821 7.54605 18.1134C8.25426 18.0683 8.50739 17.4906 8.4818 17.0821C8.37529 15.3911 5.6061 15.491 5.43112 12.7125C5.28381 10.3744 6.81503 8.00511 10.1935 7.79149C11.4951 7.70756 12.1611 8.04049 12.1611 8.04049Z" fill="white"/>
</svg>
