<svg width="17" height="23" viewBox="0 0 17 23" fill="none" xmlns="http://www.w3.org/2000/svg">
<path fill-rule="evenodd" clip-rule="evenodd" d="M10.9782 0.0707171C11.3026 0.209637 11.5131 0.529997 11.5131 0.884636V9.13889H16.1207C16.4334 9.13889 16.7225 9.30595 16.8801 9.57765C17.0377 9.84935 17.0401 10.1848 16.8862 10.4587L16.3093 11.4858C14.1215 15.3813 11.3313 18.9016 8.04343 21.9146L7.11076 22.7693C6.85335 23.0052 6.48181 23.0661 6.1633 22.9245C5.84479 22.783 5.63931 22.4657 5.63931 22.1154V13.9311H0.87931C0.393681 13.9311 0 13.535 0 13.0465C0 12.8882 0.0412987 12.7397 0.113644 12.6112C2.17567 8.77614 4.81569 5.2855 7.93984 2.26339L10.0243 0.246977C10.2784 0.00117381 10.6539 -0.0682025 10.9782 0.0707171ZM2.38537 12.1619H6.51862C7.00425 12.1619 7.39793 12.5579 7.39793 13.0465V20.1038C10.2335 17.408 12.664 14.3103 14.6123 10.9081H10.6338C10.1482 10.9081 9.75448 10.5121 9.75448 10.0235V2.96244L9.15875 3.53871C6.51991 6.09136 4.24158 8.99291 2.38537 12.1619Z" fill="#6C6EF0"/>
</svg>
