<svg width="25" height="25" viewBox="0 0 25 25" fill="none" xmlns="http://www.w3.org/2000/svg">
<path d="M20.8381 0.466217H12.0178C12.0178 2.66505 13.7978 4.44473 15.9957 4.44473H17.6185V6.01504C17.6185 8.21387 19.3984 9.99376 21.5973 9.99376V1.2252C21.597 1.02394 21.517 0.830976 21.3747 0.688678C21.2323 0.54638 21.0393 0.466372 20.8381 0.466217Z" fill="#2684FF"/>
<path d="M16.4674 4.86368H7.64709C7.64709 7.06251 9.4262 8.8418 11.625 8.8418H13.2477V10.4125C13.2477 12.6113 15.0276 14.3914 17.2264 14.3914V5.62286C17.2262 5.42159 17.1462 5.22861 17.0039 5.08628C16.8616 4.94394 16.6687 4.86388 16.4674 4.86368Z" fill="url(#paint0_linear_0_409)"/>
<path d="M12.0965 9.26054H3.27539C3.27539 11.4594 5.05527 13.2393 7.25391 13.2393H8.87695V14.8102C8.87695 17.0082 10.6566 18.7881 12.8555 18.7881V10.0197C12.8553 9.81846 12.7753 9.62548 12.633 9.48314C12.4907 9.34081 12.2977 9.26075 12.0965 9.26054Z" fill="url(#paint1_linear_0_409)"/>
<path d="M8.98436 19.7738H9.65507V23.0902C9.65507 23.9654 9.25604 24.5758 8.32968 24.5758C7.98202 24.5758 7.70956 24.5178 7.52264 24.4521V23.8166C7.72714 23.899 7.97343 23.9402 8.21991 23.9402C8.78905 23.9402 8.98436 23.6107 8.98436 23.1316V19.7738ZM10.8871 19.5176C11.1504 19.5176 11.3373 19.6746 11.3373 19.9547C11.3373 20.227 11.1504 20.3926 10.8871 20.3926C10.624 20.3926 10.4371 20.2354 10.4371 19.9547C10.4371 19.6832 10.624 19.5176 10.8871 19.5176ZM10.556 20.9121H11.2016V24.543H10.556V20.9121ZM12.7982 24.543H12.1699V20.9121H12.7984V21.5477C13.0197 21.1182 13.3935 20.8131 14.1236 20.8543V21.4652C13.2998 21.3828 12.7984 21.6217 12.7984 22.3977L12.7982 24.543ZM17.1402 23.8906C16.9021 24.3697 16.4519 24.6172 15.8736 24.6172C14.8805 24.6172 14.3791 23.7998 14.3791 22.7271C14.3791 21.7041 14.9055 20.8381 15.9508 20.8381C16.4939 20.8381 16.9189 21.077 17.1402 21.5477V20.9121H17.7857V24.543H17.1402V23.8906ZM16.0439 24.0395C16.6215 24.0395 17.131 23.6848 17.131 22.876V22.5875C17.131 21.7789 16.6642 21.424 16.1117 21.424C15.39 21.424 15.016 21.8857 15.016 22.7271C15.0246 23.6021 15.3816 24.0395 16.0439 24.0395Z" fill="#253858"/>
<defs>
<linearGradient id="paint0_linear_0_409" x1="17.043" y1="4.87357" x2="13.2901" y2="8.74332" gradientUnits="userSpaceOnUse">
<stop offset="0.176" stop-color="#0052CC"/>
<stop offset="1" stop-color="#2684FF"/>
</linearGradient>
<linearGradient id="paint1_linear_0_409" x1="12.9259" y1="9.2945" x2="8.58662" y2="13.5162" gradientUnits="userSpaceOnUse">
<stop offset="0.176" stop-color="#0052CC"/>
<stop offset="1" stop-color="#2684FF"/>
</linearGradient>
</defs>
</svg>
