<svg width="25" height="25" viewBox="0 0 25 25" fill="none" xmlns="http://www.w3.org/2000/svg">
<path d="M5.72919 1.04166C4.86624 1.04166 4.16669 1.74122 4.16669 2.60416V22.3958C4.16669 23.2588 4.86624 23.9583 5.72919 23.9583H19.2709C20.1338 23.9583 20.8334 23.2588 20.8334 22.3958V7.29166L14.5834 1.04166H5.72919Z" fill="#20A464"/>
<path d="M5.72919 23.9583C4.86624 23.9583 4.16669 23.2588 4.16669 22.3958V22.1354C4.16669 22.9984 4.86624 23.6979 5.72919 23.6979H19.2709C20.1338 23.6979 20.8334 22.9984 20.8334 22.1354V22.3958C20.8334 23.2588 20.1338 23.9583 19.2709 23.9583H5.72919Z" fill="#149456"/>
<path d="M5.72919 1.04166C4.86624 1.04166 4.16669 1.74122 4.16669 2.60416V2.86458C4.16669 2.00164 4.86624 1.30208 5.72919 1.30208H14.8438L14.5834 1.04166H5.72919Z" fill="#38AE74"/>
<path d="M20.8333 12.6302V7.29167L19.9218 6.38021H15.5264C15.1783 6.38021 15.0041 6.80097 15.2501 7.04705L20.8333 12.6302Z" fill="url(#paint0_linear_0_384)"/>
<path d="M14.5833 1.04166L20.8333 7.29166H16.1458C15.2829 7.29166 14.5833 6.59211 14.5833 5.72916V1.04166Z" fill="#8ED1B1"/>
<path fill-rule="evenodd" clip-rule="evenodd" d="M16.6666 12.2396V19.7917H8.33331V12.2396H16.6666ZM11.9791 13.2813H9.37498V14.5833H11.9791V13.2813ZM13.0208 14.5833V13.2813H15.625V14.5833H13.0208ZM11.9791 15.3646H9.37498V16.6667H11.9791V15.3646ZM13.0208 16.6667V15.3646H15.625V16.6667H13.0208ZM11.9791 17.4479H9.37498V18.75H11.9791V17.4479ZM13.0208 18.75V17.4479H15.625V18.75H13.0208Z" fill="white"/>
<defs>
<linearGradient id="paint0_linear_0_384" x1="17.9841" y1="12.6302" x2="17.9841" y2="6.25" gradientUnits="userSpaceOnUse">
<stop stop-color="#20A464"/>
<stop offset="1" stop-color="#207E55"/>
</linearGradient>
</defs>
</svg>
