<svg width="25" height="25" viewBox="0 0 25 25" fill="none" xmlns="http://www.w3.org/2000/svg">
<circle cx="12.5" cy="12.5" r="12.5" fill="#FF7A59"/>
<path d="M16.733 9.6736V7.69721C16.9946 7.57491 17.2161 7.38093 17.3718 7.13779C17.5276 6.89466 17.6112 6.61233 17.6129 6.32359V6.27707C17.6118 5.87344 17.451 5.48664 17.1657 5.20117C16.8803 4.91569 16.4936 4.75474 16.09 4.75345H16.0434C15.6399 4.75473 15.2533 4.9156 14.968 5.20092C14.6827 5.48625 14.5218 5.87286 14.5205 6.27637V6.3229C14.5218 6.60996 14.6041 6.89083 14.7579 7.13321C14.9117 7.37559 15.1308 7.56964 15.39 7.69304L15.399 7.69721V9.67776C14.6433 9.79322 13.9318 10.1071 13.3372 10.5875L13.3455 10.5805L7.9094 6.3479C8.0129 5.96016 7.9787 5.54853 7.81265 5.18318C7.64659 4.81784 7.35895 4.5214 6.99877 4.34441C6.6386 4.16742 6.22818 4.12084 5.8375 4.21261C5.44682 4.30438 5.10007 4.52882 4.85636 4.84766C4.61265 5.1665 4.48708 5.56 4.50105 5.96107C4.51503 6.36214 4.66768 6.74595 4.93299 7.04706C5.19829 7.34816 5.55983 7.54792 5.95595 7.61228C6.35207 7.67664 6.75825 7.60161 7.10523 7.39998L7.0969 7.40415L12.442 11.5646C11.9695 12.273 11.7186 13.1061 11.7212 13.9576C11.7201 14.8551 11.9985 15.7306 12.5177 16.4625L12.5087 16.4486L10.8823 18.0757C10.7521 18.0337 10.6163 18.0114 10.4795 18.0097H10.4782C10.1989 18.0097 9.92597 18.0925 9.6938 18.2477C9.46163 18.4028 9.28067 18.6233 9.17381 18.8812C9.06696 19.1392 9.039 19.4231 9.09347 19.697C9.14795 19.9708 9.28241 20.2224 9.47986 20.4198C9.6773 20.6173 9.92886 20.7517 10.2027 20.8062C10.4766 20.8607 10.7605 20.8327 11.0184 20.7259C11.2764 20.619 11.4969 20.4381 11.652 20.2059C11.8072 19.9737 11.89 19.7008 11.89 19.4215C11.8881 19.2811 11.8647 19.1417 11.8205 19.0083L11.824 19.0181L13.433 17.409C13.9575 17.8092 14.5663 18.0845 15.2131 18.214C15.86 18.3435 16.5278 18.3237 17.1659 18.1563C17.804 17.9888 18.3955 17.678 18.8954 17.2476C19.3953 16.8171 19.7904 16.2783 20.0507 15.6722C20.3111 15.066 20.4297 14.4085 20.3977 13.7496C20.3657 13.0907 20.1838 12.4478 19.8659 11.8697C19.5481 11.2917 19.1025 10.7937 18.5633 10.4138C18.024 10.0338 17.4052 9.78188 16.7539 9.67707L16.7289 9.6736H16.733ZM16.0636 16.1861C15.6235 16.1849 15.1937 16.0533 14.8284 15.8079C14.4632 15.5625 14.1788 15.2144 14.0112 14.8076C13.8436 14.4007 13.8004 13.9532 13.8869 13.5218C13.9735 13.0904 14.1859 12.6942 14.4975 12.3835C14.809 12.0727 15.2057 11.8612 15.6373 11.7757C16.069 11.6903 16.5163 11.7346 16.9228 11.9032C17.3293 12.0718 17.6766 12.357 17.9211 12.7229C18.1655 13.0888 18.2961 13.519 18.2962 13.959V13.9604C18.2963 14.2529 18.2388 14.5425 18.1269 14.8128C18.015 15.083 17.8509 15.3286 17.6441 15.5354C17.4373 15.7422 17.1918 15.9063 16.9215 16.0182C16.6513 16.13 16.3616 16.1876 16.0691 16.1875L16.0636 16.1861Z" fill="white"/>
</svg>
