<svg width="22" height="25" viewBox="0 0 22 25" fill="none" xmlns="http://www.w3.org/2000/svg">
<path d="M19.2682 4.81392C19.2509 4.68769 19.1409 4.61763 19.0496 4.61C18.959 4.60238 17.1843 4.57533 17.1843 4.57533C17.1843 4.57533 15.7002 3.1299 15.5535 2.98286C15.4069 2.83582 15.1206 2.88021 15.0092 2.9135C15.0079 2.91419 14.7305 3.0002 14.2637 3.14515C14.1855 2.8913 14.0707 2.57919 13.9068 2.26569C13.3784 1.25444 12.6045 0.719689 11.6695 0.718302C11.6681 0.718302 11.6674 0.718302 11.666 0.718302C11.601 0.718302 11.5367 0.724545 11.4717 0.730093C11.444 0.696801 11.4163 0.664203 11.3873 0.632298C10.9799 0.19534 10.4578 -0.0175909 9.83188 0.00113589C8.62433 0.0358151 7.42163 0.910425 6.44646 2.46405C5.76039 3.55714 5.23823 4.93044 5.09022 5.99371C3.70355 6.42442 2.73392 6.72544 2.71248 6.73237C2.01258 6.95293 1.99044 6.97443 1.89915 7.63611C1.83137 8.13619 0 22.338 0 22.338L15.3474 25L21.9993 23.3416C21.9993 23.3416 19.2854 4.94015 19.2682 4.81392ZM13.4953 3.38375C13.1419 3.49333 12.7401 3.61818 12.3044 3.75343C12.2954 3.1403 12.2228 2.28719 11.9378 1.54991C12.8542 1.724 13.3051 2.76368 13.4953 3.38375ZM11.5014 4.00312C10.6971 4.25281 9.81943 4.52539 8.93901 4.79866C9.18661 3.84776 9.65621 2.90101 10.233 2.28025C10.4474 2.04929 10.7476 1.79197 11.1031 1.64493C11.4371 2.34406 11.5097 3.33381 11.5014 4.00312ZM9.85608 0.807081C10.1396 0.800839 10.3782 0.863261 10.5823 0.997817C10.2558 1.16774 9.94046 1.41189 9.64445 1.73024C8.87746 2.55561 8.2896 3.83666 8.05514 5.07263C7.32411 5.29943 6.60899 5.52207 5.95058 5.72598C6.36624 3.78048 7.9922 0.861181 9.85608 0.807081Z" fill="#95BF47"/>
<path d="M19.0503 4.61071C18.9597 4.60308 17.1851 4.57603 17.1851 4.57603C17.1851 4.57603 15.7009 3.1306 15.5542 2.98356C15.4996 2.92877 15.4256 2.90033 15.3481 2.88854L15.3488 24.9993L22 23.3417C22 23.3417 19.2862 4.94086 19.2689 4.81463C19.2516 4.68839 19.1409 4.61834 19.0503 4.61071Z" fill="#5E8E3E"/>
<path d="M11.6611 8.04049L10.8886 10.939C10.8886 10.939 10.0269 10.5457 9.00538 10.6102C7.50736 10.7052 7.49145 11.6527 7.50666 11.8906C7.58827 13.1869 10.9889 13.4699 11.1798 16.5064C11.3299 18.8951 9.91622 20.5292 7.87944 20.6582C5.43461 20.8128 4.08875 19.3667 4.08875 19.3667L4.60676 17.157C4.60676 17.157 5.96162 18.1821 7.04605 18.1134C7.75426 18.0683 8.00739 17.4906 7.9818 17.0821C7.87529 15.3911 5.1061 15.491 4.93112 12.7125C4.78381 10.3744 6.31503 8.00512 9.69353 7.7915C10.9951 7.70757 11.6611 8.04049 11.6611 8.04049Z" fill="white"/>
</svg>
