<svg width="25" height="26" viewBox="0 0 25 26" fill="none" xmlns="http://www.w3.org/2000/svg">
<circle cx="12.5" cy="13" r="12.5" fill="#FF7A59"/>
<circle cx="12.5" cy="13" r="12.5" stroke="black"/>
<path d="M16.733 10.1736V8.19721C16.9946 8.07491 17.2161 7.88093 17.3718 7.63779C17.5276 7.39466 17.6112 7.11233 17.6129 6.82359V6.77707C17.6118 6.37344 17.451 5.98664 17.1657 5.70117C16.8803 5.41569 16.4936 5.25474 16.09 5.25345H16.0434C15.6399 5.25473 15.2533 5.4156 14.968 5.70092C14.6827 5.98625 14.5218 6.37286 14.5205 6.77637V6.8229C14.5218 7.10996 14.6041 7.39083 14.7579 7.63321C14.9117 7.87559 15.1308 8.06964 15.39 8.19304L15.399 8.19721V10.1778C14.6433 10.2932 13.9318 10.6071 13.3372 11.0875L13.3455 11.0805L7.9094 6.8479C8.0129 6.46016 7.9787 6.04853 7.81265 5.68318C7.64659 5.31784 7.35895 5.0214 6.99877 4.84441C6.6386 4.66742 6.22818 4.62084 5.8375 4.71261C5.44682 4.80438 5.10007 5.02882 4.85636 5.34766C4.61265 5.6665 4.48708 6.06 4.50105 6.46107C4.51503 6.86214 4.66768 7.24595 4.93299 7.54706C5.19829 7.84816 5.55983 8.04792 5.95595 8.11228C6.35207 8.17664 6.75825 8.10161 7.10523 7.89998L7.0969 7.90415L12.442 12.0646C11.9695 12.773 11.7186 13.6061 11.7212 14.4576C11.7201 15.3551 11.9985 16.2306 12.5177 16.9625L12.5087 16.9486L10.8823 18.5757C10.7521 18.5337 10.6163 18.5114 10.4795 18.5097H10.4782C10.1989 18.5097 9.92597 18.5925 9.6938 18.7477C9.46163 18.9028 9.28067 19.1233 9.17381 19.3812C9.06696 19.6392 9.039 19.9231 9.09347 20.197C9.14795 20.4708 9.28241 20.7224 9.47986 20.9198C9.6773 21.1173 9.92886 21.2517 10.2027 21.3062C10.4766 21.3607 10.7605 21.3327 11.0184 21.2259C11.2764 21.119 11.4969 20.9381 11.652 20.7059C11.8072 20.4737 11.89 20.2008 11.89 19.9215C11.8881 19.7811 11.8647 19.6417 11.8205 19.5083L11.824 19.5181L13.433 17.909C13.9575 18.3092 14.5663 18.5845 15.2131 18.714C15.86 18.8435 16.5278 18.8237 17.1659 18.6563C17.804 18.4888 18.3955 18.178 18.8954 17.7476C19.3953 17.3171 19.7904 16.7783 20.0507 16.1722C20.3111 15.566 20.4297 14.9085 20.3977 14.2496C20.3657 13.5907 20.1838 12.9478 19.8659 12.3697C19.5481 11.7917 19.1025 11.2937 18.5633 10.9138C18.024 10.5338 17.4052 10.2819 16.7539 10.1771L16.7289 10.1736H16.733ZM16.0636 16.6861C15.6235 16.6849 15.1937 16.5533 14.8284 16.3079C14.4632 16.0625 14.1788 15.7144 14.0112 15.3076C13.8436 14.9007 13.8004 14.4532 13.8869 14.0218C13.9735 13.5904 14.1859 13.1942 14.4975 12.8835C14.809 12.5727 15.2057 12.3612 15.6373 12.2757C16.069 12.1903 16.5163 12.2346 16.9228 12.4032C17.3293 12.5718 17.6766 12.857 17.9211 13.2229C18.1655 13.5888 18.2961 14.019 18.2962 14.459V14.4604C18.2963 14.7529 18.2388 15.0425 18.1269 15.3128C18.015 15.583 17.8509 15.8286 17.6441 16.0354C17.4373 16.2422 17.1918 16.4063 16.9215 16.5182C16.6513 16.63 16.3616 16.6876 16.0691 16.6875L16.0636 16.6861Z" fill="white"/>
</svg>
