<svg width="17" height="18" viewBox="0 0 17 18" fill="none" xmlns="http://www.w3.org/2000/svg">
<path d="M12.733 6.1736V4.19721C12.9946 4.07491 13.2161 3.88093 13.3718 3.63779C13.5276 3.39466 13.6112 3.11233 13.6129 2.82359V2.77707C13.6118 2.37344 13.451 1.98664 13.1657 1.70117C12.8803 1.41569 12.4936 1.25474 12.09 1.25345H12.0434C11.6399 1.25473 11.2533 1.4156 10.968 1.70092C10.6827 1.98625 10.5218 2.37286 10.5205 2.77637V2.8229C10.5218 3.10996 10.6041 3.39083 10.7579 3.63321C10.9117 3.87559 11.1308 4.06964 11.39 4.19304L11.399 4.19721V6.17776C10.6433 6.29322 9.93185 6.60714 9.33718 7.08749L9.34552 7.08054L3.9094 2.8479C4.0129 2.46016 3.9787 2.04853 3.81265 1.68318C3.64659 1.31784 3.35895 1.0214 2.99877 0.84441C2.6386 0.667422 2.22818 0.620843 1.8375 0.712613C1.44682 0.804384 1.10007 1.02882 0.856358 1.34766C0.61265 1.6665 0.487078 2.06 0.501052 2.46107C0.515026 2.86214 0.66768 3.24595 0.932988 3.54706C1.19829 3.84816 1.55983 4.04792 1.95595 4.11228C2.35207 4.17664 2.75825 4.10161 3.10523 3.89998L3.0969 3.90415L8.44204 8.06457C7.96952 8.77301 7.71859 9.60607 7.72121 10.4576C7.72006 11.3551 7.99847 12.2306 8.51774 12.9625L8.50871 12.9486L6.88232 14.5757C6.75212 14.5337 6.61635 14.5114 6.47954 14.5097H6.47815C6.19892 14.5097 5.92597 14.5925 5.6938 14.7477C5.46163 14.9028 5.28067 15.1233 5.17381 15.3812C5.06696 15.6392 5.039 15.9231 5.09347 16.197C5.14795 16.4708 5.28241 16.7224 5.47986 16.9198C5.6773 17.1173 5.92886 17.2517 6.20272 17.3062C6.47659 17.3607 6.76046 17.3327 7.01843 17.2259C7.2764 17.119 7.4969 16.9381 7.65203 16.7059C7.80716 16.4737 7.88996 16.2008 7.88996 15.9215C7.88808 15.7811 7.86466 15.6417 7.82052 15.5083L7.82399 15.5181L9.43302 13.909C9.95747 14.3092 10.5663 14.5845 11.2131 14.714C11.86 14.8435 12.5278 14.8237 13.1659 14.6563C13.804 14.4888 14.3955 14.178 14.8954 13.7476C15.3953 13.3171 15.7904 12.7783 16.0507 12.1722C16.3111 11.566 16.4297 10.9085 16.3977 10.2496C16.3657 9.59069 16.1838 8.94776 15.8659 8.36972C15.5481 7.79168 15.1025 7.29374 14.5633 6.91379C14.024 6.53384 13.4052 6.28188 12.7539 6.17707L12.7289 6.1736H12.733ZM12.0636 12.6861C11.6235 12.6849 11.1937 12.5533 10.8284 12.3079C10.4632 12.0625 10.1788 11.7144 10.0112 11.3076C9.84361 10.9007 9.80037 10.4532 9.88693 10.0218C9.97348 9.59035 10.1859 9.19423 10.4975 8.88346C10.809 8.5727 11.2057 8.36122 11.6373 8.27574C12.069 8.19026 12.5163 8.23461 12.9228 8.4032C13.3293 8.57179 13.6766 8.85704 13.9211 9.22294C14.1655 9.58884 14.2961 10.019 14.2962 10.459V10.4604C14.2963 10.7529 14.2388 11.0425 14.1269 11.3128C14.015 11.583 13.8509 11.8286 13.6441 12.0354C13.4373 12.2422 13.1918 12.4063 12.9215 12.5182C12.6513 12.63 12.3616 12.6876 12.0691 12.6875L12.0636 12.6861Z" fill="white"/>
</svg>
