<svg width="23" height="25" viewBox="0 0 23 25" fill="none" xmlns="http://www.w3.org/2000/svg">
<path d="M17.5527 5.92105H5.44739V19.079H17.5527V5.92105Z" fill="white"/>
<path d="M17.5526 25L23 19.0789H17.5526V25Z" fill="#EA4335"/>
<path d="M23 5.92105H17.5526V19.079H23V5.92105Z" fill="#FBBC04"/>
<path d="M17.5527 19.0789H5.44739V25H17.5527V19.0789Z" fill="#34A853"/>
<path d="M0 19.0789V23.0263C0 24.1168 0.812567 25 1.81579 25H5.44738V19.0789H0Z" fill="#188038"/>
<path d="M23 5.92105V1.97368C23 0.883224 22.1874 0 21.1842 0H17.5526V5.92105H23Z" fill="#1967D2"/>
<path d="M17.5527 0H1.81579C0.812567 0 0 0.883224 0 1.97368V19.079H5.44738V5.92105H17.5527V0Z" fill="#4285F4"/>
<path d="M7.93057 16.1283C7.47814 15.796 7.16491 15.3108 6.99393 14.6694L8.04406 14.199C8.13939 14.5937 8.30583 14.8997 8.5434 15.1168C8.77945 15.3339 9.06696 15.4408 9.40288 15.4408C9.74637 15.4408 10.0414 15.3273 10.2881 15.1003C10.5347 14.8733 10.6588 14.5839 10.6588 14.2335C10.6588 13.875 10.5287 13.5822 10.2684 13.3553C10.0081 13.1283 9.6813 13.0148 9.2909 13.0148H8.68413V11.8849H9.22886C9.56478 11.8849 9.84775 11.7862 10.0777 11.5888C10.3077 11.3914 10.4227 11.1217 10.4227 10.7779C10.4227 10.472 10.3199 10.2286 10.1141 10.046C9.90827 9.86348 9.64801 9.77137 9.33176 9.77137C9.02308 9.77137 8.77794 9.86018 8.59636 10.0395C8.4149 10.2192 8.27848 10.4462 8.19992 10.699L7.16038 10.2286C7.29807 9.80427 7.55077 9.42926 7.92149 9.10525C8.29222 8.78124 8.76584 8.61841 9.34084 8.61841C9.76604 8.61841 10.1489 8.70722 10.4878 8.8865C10.8268 9.06578 11.0931 9.31413 11.2852 9.62992C11.4774 9.94736 11.5727 10.3026 11.5727 10.6974C11.5727 11.1003 11.4835 11.4408 11.3049 11.7204C11.1264 12 10.907 12.2138 10.6467 12.3635V12.4309C10.9828 12.5815 11.2747 12.8289 11.491 13.1464C11.7104 13.4671 11.8209 13.8503 11.8209 14.2977C11.8209 14.7451 11.7165 15.1447 11.5077 15.4951C11.2989 15.8454 11.0099 16.1217 10.6437 16.3224C10.276 16.523 9.86288 16.625 9.40439 16.625C8.87327 16.6266 8.38301 16.4605 7.93057 16.1283ZM14.3812 10.4638L13.2281 11.3701L12.6516 10.4194L14.7201 8.79769H15.513V16.4474H14.3812V10.4638Z" fill="#4285F4"/>
</svg>
