<svg width="16" height="17" viewBox="0 0 16 17" fill="none" xmlns="http://www.w3.org/2000/svg">
<path d="M4.4 11.9C4.71826 11.9 5.02348 11.7657 5.24853 11.5266C5.47357 11.2875 5.6 10.9632 5.6 10.625C5.60391 10.5826 5.60391 10.5399 5.6 10.4975L7.832 8.126H8.016H8.2L9.488 9.4945C9.488 9.4945 9.488 9.537 9.488 9.5625C9.488 9.90065 9.61443 10.225 9.83947 10.4641C10.0645 10.7032 10.3697 10.8375 10.688 10.8375C11.0063 10.8375 11.3115 10.7032 11.5365 10.4641C11.7616 10.225 11.888 9.90065 11.888 9.5625V9.4945L14.8 6.375C15.0373 6.375 15.2693 6.30022 15.4667 6.16012C15.664 6.02003 15.8178 5.8209 15.9087 5.58792C15.9995 5.35495 16.0232 5.09859 15.9769 4.85126C15.9306 4.60393 15.8164 4.37675 15.6485 4.19844C15.4807 4.02013 15.2669 3.89869 15.0341 3.8495C14.8013 3.8003 14.5601 3.82555 14.3408 3.92205C14.1215 4.01856 13.9341 4.18198 13.8022 4.39165C13.6704 4.60132 13.6 4.84783 13.6 5.1C13.5961 5.1424 13.5961 5.1851 13.6 5.2275L10.712 8.296H10.584L9.2 6.8C9.2 6.46185 9.07357 6.13755 8.84853 5.89844C8.62348 5.65933 8.31826 5.525 8 5.525C7.68174 5.525 7.37652 5.65933 7.15147 5.89844C6.92643 6.13755 6.8 6.46185 6.8 6.8L4.4 9.35C4.08174 9.35 3.77652 9.48433 3.55147 9.72344C3.32643 9.96255 3.2 10.2868 3.2 10.625C3.2 10.9632 3.32643 11.2875 3.55147 11.5266C3.77652 11.7657 4.08174 11.9 4.4 11.9ZM15.2 15.3H1.6V0.85C1.6 0.624566 1.51571 0.408365 1.36569 0.248959C1.21566 0.0895533 1.01217 0 0.8 0C0.587827 0 0.384344 0.0895533 0.234315 0.248959C0.0842854 0.408365 0 0.624566 0 0.85V16.15C0 16.3754 0.0842854 16.5916 0.234315 16.751C0.384344 16.9104 0.587827 17 0.8 17H15.2C15.4122 17 15.6157 16.9104 15.7657 16.751C15.9157 16.5916 16 16.3754 16 16.15C16 15.9246 15.9157 15.7084 15.7657 15.549C15.6157 15.3896 15.4122 15.3 15.2 15.3Z" fill="#6C6EF0"/>
</svg>
